<svg width="627" height="56" viewBox="0 0 627 56" fill="none" xmlns="http://www.w3.org/2000/svg">
<rect width="509" height="56" fill="white" fill-opacity="0.15"/>
<path d="M32.368 37.376C32.72 37.456 33.072 37.488 33.536 37.488C34.64 37.488 35.392 36.992 35.84 35.776L39.392 26.256H38.256L35.808 33.008L33.312 26.256H32.144L35.28 34.464L34.944 35.376C34.56 36.416 33.888 36.464 33.216 36.464H32.368V37.376ZM39.8736 30.128C39.8736 32.48 41.5376 34.192 43.8096 34.192C46.0816 34.192 47.7456 32.48 47.7456 30.128C47.7456 27.76 46.0816 26.048 43.8096 26.048C41.5376 26.048 39.8736 27.76 39.8736 30.128ZM40.9936 30.112C40.9936 28.32 42.1456 27.04 43.8096 27.04C45.4576 27.04 46.6256 28.32 46.6256 30.112C46.6256 31.936 45.4576 33.2 43.8096 33.2C42.1456 33.2 40.9936 31.936 40.9936 30.112ZM54.7639 26.256V30.368C54.7639 32.208 53.8839 33.2 52.3959 33.2C51.1639 33.2 50.3479 32.544 50.3479 30.704V26.24H49.2279V31.056C49.2279 32.944 50.2199 34.192 52.0439 34.192C53.2599 34.192 54.3319 33.584 54.7639 32.688L54.9079 34H55.8679V26.256H54.7639ZM62.2156 26.16C61.9436 26.096 61.7356 26.08 61.4956 26.08C60.4076 26.08 59.5916 26.624 59.2876 27.456L59.2076 26.256H58.1676V34H59.2716V29.584C59.2716 28.112 60.1836 27.152 61.6076 27.152H62.2156V26.16ZM66.7835 30.48C66.7835 31.776 67.7275 32.576 69.2475 32.576C70.4635 32.576 71.4555 32.032 71.9035 31.12C71.9995 32.08 72.6555 32.576 73.7595 32.576C75.3755 32.576 76.5275 30.96 76.5275 28.704C76.5275 24.992 73.7755 22.336 69.9515 22.336C66.2235 22.336 63.3595 25.2 63.3595 28.928C63.3595 32.704 66.2075 35.568 69.9515 35.568C71.4875 35.568 72.8795 35.072 74.0315 34.16L73.5835 33.504C72.5595 34.336 71.2955 34.768 69.9515 34.768C66.7035 34.768 64.2235 32.24 64.2235 28.928C64.2235 25.664 66.7195 23.136 69.9515 23.136C73.2795 23.136 75.6635 25.456 75.6635 28.704C75.6635 30.56 74.9275 31.824 73.8395 31.824C73.1835 31.824 72.8475 31.488 72.8475 30.864V27.808C72.8475 26.08 71.7755 25.104 69.9675 25.104C68.1915 25.104 67.0235 26.048 67.0235 27.456H67.9835C67.9835 26.512 68.7035 25.952 69.9195 25.952C71.1995 25.952 71.8235 26.56 71.8235 27.792V28.032L69.4715 28.208C67.7595 28.352 66.7835 29.216 66.7835 30.48ZM67.8075 30.464C67.8075 29.584 68.4635 29.088 69.7115 28.976L71.8235 28.816V29.168C71.8235 30.768 70.9275 31.728 69.4715 31.728C68.3995 31.728 67.8075 31.28 67.8075 30.464ZM81.6031 34.192C83.4271 34.192 84.6271 33.312 85.0431 31.68H83.9871C83.6991 32.704 82.8831 33.248 81.6191 33.248C79.9551 33.248 78.9631 32.16 78.8831 30.272H85.0431V29.728C85.0431 27.536 83.6191 26.048 81.5231 26.048C79.3151 26.048 77.8111 27.712 77.8111 30.128C77.8111 32.56 79.3311 34.192 81.6031 34.192ZM81.5231 26.992C82.9791 26.992 83.9391 27.984 83.9391 29.472H78.9151C79.1071 27.952 80.0671 26.992 81.5231 26.992ZM87.9123 34V29.2C87.9123 28.016 88.6963 27.056 89.9923 27.056C91.1603 27.056 91.9123 27.824 91.9123 29.136V34H93.0003V29.216C93.0003 28.016 93.7683 27.04 95.0642 27.04C96.2483 27.04 96.9843 27.824 96.9843 29.152V34H98.0563V28.928C98.0563 27.136 96.9523 26.048 95.2723 26.048C94.0243 26.048 93.0803 26.688 92.7283 27.696C92.3603 26.688 91.4483 26.048 90.2323 26.048C89.1443 26.048 88.2803 26.544 87.8963 27.36L87.7682 26.256H86.8083V34H87.9123ZM102.501 34.192C103.813 34.192 104.869 33.616 105.349 32.64L105.493 34H106.421V28.992C106.421 26.944 105.109 26.048 103.317 26.048C101.413 26.048 100.133 27.056 100.133 28.624H101.141C101.141 27.584 101.941 26.976 103.285 26.976C104.421 26.976 105.333 27.456 105.333 28.976V29.232L102.773 29.44C100.965 29.584 99.877 30.48 99.877 31.904C99.877 33.264 100.853 34.192 102.501 34.192ZM102.757 33.296C101.701 33.296 100.997 32.816 100.997 31.872C100.997 31.008 101.589 30.368 103.045 30.24L105.333 30.064V30.48C105.333 32.16 104.389 33.296 102.757 33.296ZM109.18 24.128C109.628 24.128 110.012 23.76 110.012 23.312C110.012 22.864 109.628 22.48 109.18 22.48C108.732 22.48 108.364 22.864 108.364 23.312C108.364 23.76 108.732 24.128 109.18 24.128ZM108.636 34H109.74V26.256H108.636V34ZM113.195 34V22.336H112.091V34H113.195ZM116.487 34.176C117.031 34.176 117.495 33.728 117.495 33.2C117.495 32.656 117.031 32.192 116.487 32.192C115.943 32.192 115.479 32.656 115.479 33.2C115.479 33.728 115.943 34.176 116.487 34.176ZM118.702 30.144C118.702 32.576 120.19 34.192 122.382 34.192C124.142 34.192 125.518 33.152 125.886 31.568H124.766C124.462 32.56 123.534 33.2 122.382 33.2C120.814 33.2 119.79 31.968 119.79 30.128C119.79 28.224 120.894 27.024 122.462 27.024C123.534 27.024 124.462 27.616 124.75 28.688H125.854C125.55 27.088 124.238 26.048 122.446 26.048C120.19 26.048 118.702 27.712 118.702 30.144ZM127.014 30.128C127.014 32.48 128.678 34.192 130.95 34.192C133.222 34.192 134.886 32.48 134.886 30.128C134.886 27.76 133.222 26.048 130.95 26.048C128.678 26.048 127.014 27.76 127.014 30.128ZM128.134 30.112C128.134 28.32 129.286 27.04 130.95 27.04C132.598 27.04 133.766 28.32 133.766 30.112C133.766 31.936 132.598 33.2 130.95 33.2C129.286 33.2 128.134 31.936 128.134 30.112ZM137.756 34V29.2C137.756 28.016 138.54 27.056 139.836 27.056C141.004 27.056 141.756 27.824 141.756 29.136V34H142.844V29.216C142.844 28.016 143.612 27.04 144.908 27.04C146.092 27.04 146.828 27.824 146.828 29.152V34H147.9V28.928C147.9 27.136 146.796 26.048 145.116 26.048C143.868 26.048 142.924 26.688 142.572 27.696C142.204 26.688 141.292 26.048 140.076 26.048C138.988 26.048 138.124 26.544 137.74 27.36L137.612 26.256H136.652V34H137.756Z" fill="white"/>
<rect width="118" height="56" transform="translate(509)" fill="white"/>
<path d="M541.704 25.52C541.704 27.088 542.648 28.112 544.44 28.544L546.376 29.024C547.608 29.312 548.184 29.984 548.184 31.008C548.184 32.32 547.112 33.136 545.432 33.136C543.864 33.136 542.808 32.352 542.744 31.152H541.56C541.704 33.024 543.208 34.192 545.432 34.192C547.8 34.192 549.336 32.928 549.336 30.944C549.336 29.392 548.408 28.368 546.616 27.936L544.648 27.456C543.448 27.152 542.856 26.512 542.856 25.504C542.856 24.208 543.912 23.376 545.528 23.376C546.968 23.376 547.848 24.112 547.976 25.408H549.144C548.968 23.488 547.608 22.336 545.544 22.336C543.24 22.336 541.704 23.6 541.704 25.52ZM551.712 24.128C552.16 24.128 552.544 23.76 552.544 23.312C552.544 22.864 552.16 22.48 551.712 22.48C551.264 22.48 550.896 22.864 550.896 23.312C550.896 23.76 551.264 24.128 551.712 24.128ZM551.168 34H552.272V26.256H551.168V34ZM554.046 29.904C554.046 32.016 555.39 33.76 557.598 33.76C558.926 33.76 559.998 33.12 560.526 32.032V33.872C560.526 35.488 559.47 36.56 557.886 36.56C556.494 36.56 555.534 35.824 555.294 34.576H554.19C554.494 36.448 555.886 37.568 557.87 37.568C560.142 37.568 561.614 36.064 561.614 33.76V26.256H560.654L560.542 27.808C560.046 26.672 559.022 26.048 557.678 26.048C555.406 26.048 554.046 27.792 554.046 29.904ZM555.15 29.888C555.15 28.32 556.11 27.024 557.774 27.024C559.47 27.024 560.43 28.24 560.43 29.888C560.43 31.552 559.438 32.768 557.758 32.768C556.126 32.768 555.15 31.472 555.15 29.888ZM565.022 34V29.952C565.022 28.208 565.918 27.056 567.502 27.056C568.782 27.056 569.598 27.696 569.598 29.504V34H570.702V29.264C570.702 27.312 569.822 26.048 567.694 26.048C566.574 26.048 565.55 26.608 565.038 27.6L564.878 26.256H563.918V34H565.022ZM582.78 26.256V30.368C582.78 32.208 581.9 33.2 580.411 33.2C579.18 33.2 578.364 32.544 578.364 30.704V26.24H577.243V31.056C577.243 32.944 578.236 34.192 580.06 34.192C581.276 34.192 582.348 33.584 582.78 32.688L582.924 34H583.884V26.256H582.78ZM586.183 37.376H587.287V32.512C587.831 33.632 588.871 34.192 590.183 34.192C592.471 34.192 593.767 32.432 593.767 30.096C593.767 27.76 592.423 26.048 590.183 26.048C588.887 26.048 587.799 26.624 587.255 27.824L587.143 26.256H586.183V37.376ZM587.303 30.128C587.303 28.336 588.295 27.056 589.991 27.056C591.671 27.056 592.647 28.336 592.647 30.128C592.647 31.904 591.671 33.2 589.991 33.2C588.295 33.2 587.303 31.904 587.303 30.128Z" fill="#2A254B"/>
</svg>
